<svg xmlns="http://www.w3.org/2000/svg" width="48" height="48">
  <g style="stroke:#7f4a00;stroke-opacity:1">
    <g style="stroke:#7f4a00;stroke-opacity:1">
      <g style="stroke:#7f4a00;stroke-opacity:1">
        <path d="M24.04 1012.204h-2.457l-1.228 1.466-.615 1.466.615 1.466 1.843.733v.733l-1.229 1.466-1.843.733-2.457 1.466-1.229 2.198-.614 2.932.614 2.932v2.932l-.614 4.398.614 2.199 2.457 2.199 3.072.733 2.458-.733.614 3.664zm.288.013h2.457l1.229 1.466.614 1.466-.614 1.466-1.843.733v.733l1.228 1.466 1.843.733 2.458 1.466 1.229 2.199.614 2.931-.614 2.932v2.932l.614 4.398-.614 2.199-2.458 2.199-3.072.733-2.457-.733-.614 3.664z" style="fill:none;fill-rule:evenodd;stroke:#7f4a00;stroke-width:.67104232px;stroke-linecap:butt;stroke-linejoin:miter;stroke-opacity:1" transform="translate(-.184 -1004.362)"/>
      </g>
      <g style="stroke:#7f4a00;stroke-opacity:1">
        <path d="m31 1021.362 6-2 4-4v-6h1v7-1l-5 5-5 2zm2 6 6 1 6-2 1-7 1 1-1 7-7 2-6-1zm0 5h7l6 3 2 7h-1l-2-6-5-3h-7zm0 5 7 2 3 6v6h-1v-6l-3-5-6-2zm-16.191-15.892-6-2-4-4v-6h-1v7-1l5 5 5 2zm-2 6-6 1-6-2-1-7-1 1 1 7 7 2 6-1zm0 5h-7l-6 3-2 7h1l2-6 5-3h7zm0 5-7 2-3 6v6h1v-6l3-5 6-2z" style="fill:none;fill-rule:evenodd;stroke:#7f4a00;stroke-width:1px;stroke-linecap:butt;stroke-linejoin:miter;stroke-opacity:1" transform="translate(.096 -1004.362)"/>
      </g>
    </g>
    <path d="m21.045 1012.005-1-3 2-4-1 4 1 3zm5.805-.009 1-3-2-4 1 4-1 3z" style="fill:none;fill-rule:evenodd;stroke:#7f4a00;stroke-width:1px;stroke-linecap:butt;stroke-linejoin:miter;stroke-opacity:1" transform="translate(0 -1004.362)"/>
  </g>
  <path d="M19.34 37.187c-.774-.189-1.433-.36-1.467-.38a57 57 0 0 1-1.183-1.042l-1.122-1.005-.077-.273c-.06-.215-.077-.462-.078-1.159l-.002-.886-.178.03c-.135.023-.179.016-.179-.029 0-.033.12-.924.268-1.98l.268-1.919-.001-1.652c-.001-1.475-.01-1.692-.088-2.031-.072-.314-.088-.55-.089-1.372v-.992l-.202.027c-.11.015-.2.01-.2-.012s.131-.662.291-1.422l.291-1.383.32-.581c.304-.556.35-.614 1.036-1.31.703-.714.733-.739 1.454-1.17.6-.36.91-.509 1.664-.804l.926-.363.692-.821.692-.822v-1.105l-.971-.386-.971-.387-.235-.568c-.13-.313-.235-.592-.235-.619s.116-.323.258-.657c.244-.579.282-.64.792-1.256l.536-.647.97-.001h.972v28.507l-1.328.395c-.73.217-1.349.4-1.373.406s-.678-.143-1.451-.331" style="fill:#7f4a00;stroke:none;stroke-width:1px;stroke-linecap:butt;stroke-linejoin:miter;stroke-opacity:1;fill-opacity:1"/>
  <path d="M26.014 37.179c-.638-.195-1.236-.375-1.328-.4l-.168-.046V8.209h1.912l.552.659c.541.646.556.67.813 1.293l.26.634-.251.593-.252.594-.958.379-.959.38v1.116l.672.803.672.804.99.402c.827.336 1.128.485 1.817.901.762.46.865.538 1.324 1.004.46.467.528.56.897 1.22l.4.715.275 1.316c.15.724.274 1.341.274 1.372 0 .04-.057.047-.203.027l-.202-.028.005 1.111c.004.974-.007 1.162-.088 1.524-.083.37-.092.558-.092 1.85v1.436l.268 1.945c.148 1.07.28 1.993.293 2.052.025.112.037.111-.282.023l-.1-.028-.004 1.043c-.003.855-.017 1.08-.079 1.25-.065.184-.21.33-1.215 1.228l-1.141 1.02-1.449.347c-.796.19-1.458.344-1.47.342s-.545-.163-1.183-.357z" style="fill:#5b3500;fill-opacity:1;stroke:#5b3500;stroke-opacity:1"/>
  <path d="M14.51 16.99c-.68-.274-1.229-.505-1.22-.514s.61.18 1.335.422c1.249.415 1.314.442 1.246.518-.04.043-.084.077-.098.075a76 76 0 0 1-1.263-.501" style="fill:#7f4a00;fill-opacity:1"/>
  <path d="M32.13 17.316c-.04-.044-.056-.09-.036-.1.09-.052 2.655-.889 2.672-.872.01.01-.563.25-1.273.535-1.228.49-1.295.512-1.364.437z" style="fill:#7f4a00;fill-opacity:1;stroke:#7f4a00;stroke-width:.04464286;stroke-opacity:1"/>
  <path d="M4.43 44.28v-3.303l1.567-3.136 1.568-3.137 3.376-.964 3.377-.964.186-1.312c.103-.722.2-1.438.218-1.592l.03-.279H8.023L5.66 31.011l-2.363 1.417-1.023 3.07-1.023 3.068H-.715l.025-.1c.014-.055.514-1.81 1.11-3.9l1.085-3.801 3.136-1.568 3.137-1.568h7.142v-1.127c0-1.203-.074-1.864-.208-1.864a197 197 0 0 0-2.872.469c-1.546.257-2.866.468-2.934.467s-1.76-.47-3.76-1.042c-2.96-.848-3.642-1.056-3.67-1.126-.018-.047-.269-1.749-.557-3.782l-.524-3.697.91-.91c.5-.502.918-.904.928-.894s.262 1.73.56 3.823l.544 3.805 2.79.933 2.789.933 2.611-.431a297 297 0 0 0 2.712-.454c.082-.019.101-.055.102-.186 0-.09.139-.82.307-1.622l.306-1.459.277-.498c.153-.273.27-.502.262-.509-.008-.006-1.11-.448-2.448-.981l-2.433-.97-2.21-2.207-2.21-2.207h-.78V4.638h1.964v6.272l1.885 1.886 1.886 1.886 2.96.987 2.959.986.902-.534c.736-.435 1.064-.598 1.774-.88l.87-.346.547-.653c.52-.623.546-.663.546-.854v-.201l-.887-.352-.888-.352-.347-.83c-.191-.456-.347-.852-.347-.878s.147-.401.326-.832c.314-.755.342-.803.74-1.281l.415-.498-.593-1.774-.593-1.775 1.042-2.085L21.615.445l.302.115a21 21 0 0 0 .578.212c.005.003-.207.87-.472 1.925l-.48 1.918.487 1.463.488 1.463 1.431-.012 1.432-.012.486-1.45.485-1.452-.476-1.91c-.262-1.05-.466-1.92-.453-1.933.032-.032.848-.335.861-.32.006.007.476.943 1.044 2.08l1.034 2.07-.58 1.739-.58 1.739.453.542c.44.53.46.562.778 1.321.18.429.327.806.327.84 0 .032-.155.43-.343.884l-.344.825-.873.35-.874.35-.013.206c-.013.205-.01.21.538.862l.552.656.912.367c.723.29 1.08.465 1.707.839l.794.472 3-1 3.001-1.001 1.909-1.908 1.909-1.908V4.504h1.92v7.455h-.738l-2.225 2.226-2.225 2.225-2.45.978c-1.348.537-2.451.995-2.452 1.015 0 .021.13.267.287.547l.288.508.315 1.5c.173.825.315 1.534.315 1.575 0 .064.386.139 2.69.523l2.69.449 2.799-.932c2.06-.686 2.805-.952 2.82-1.007.012-.042.257-1.743.545-3.78.288-2.039.536-3.72.552-3.739.015-.018.435.376.933.874l.906.906-.539 3.765c-.296 2.071-.543 3.77-.55 3.777s-1.675.488-3.707 1.068l-3.695 1.056-2.922-.487c-2.546-.424-2.925-.478-2.943-.417a16 16 0 0 0-.113.518c-.081.388-.092.573-.081 1.428l.013.982 3.616.023 3.616.022 3.103 1.557 3.102 1.557 1.085 3.8c.597 2.09 1.096 3.846 1.11 3.902l.026.1-.995-.011-.995-.012-1.023-3.07-1.023-3.068-2.381-1.429-2.38-1.429H36.6c-1.861 0-3.338.018-3.351.04-.025.039.391 3.116.426 3.15.01.01 1.533.452 3.384.981 1.851.53 3.37.968 3.376.974s.715 1.423 1.578 3.148l1.567 3.136v6.607h-1.964v-6.362l-1.419-2.366-1.418-2.366-2.678-.896c-1.472-.494-2.73-.91-2.795-.926-.114-.029-.121-.018-.198.266l-.08.295-1.303 1.166-1.302 1.167-1.558.368c-.856.203-1.6.368-1.65.368-.052 0-.562-.14-1.135-.312s-1.05-.305-1.06-.295-.139.748-.288 1.64l-.27 1.623-.452-.015a5 5 0 0 1-.466-.028 61 61 0 0 1-.281-1.613 49 49 0 0 0-.285-1.616c-.01-.01-.504.127-1.1.304l-1.082.322-1.543-.364c-.85-.2-1.586-.382-1.637-.403-.051-.02-.666-.551-1.366-1.179-1.24-1.11-1.275-1.146-1.34-1.377-.05-.175-.086-.232-.14-.223-.154.028-5.534 1.836-5.565 1.87-.018.02-.658 1.082-1.422 2.359l-1.39 2.321v6.361H4.428zm3.006-6.647 1.167-1.935 2.634-.872c1.449-.48 2.614-.878 2.59-.886-.025-.007-1.29.342-2.813.777l-2.768.791-1.036 2.054c-.913 1.811-1.154 2.318-.988 2.074.026-.038.573-.94 1.214-2.003Zm33.356-.181-1.023-2.048-2.77-.79c-1.524-.436-2.8-.802-2.838-.815-.037-.013-.054-.01-.038.008.015.018 1.21.428 2.656.911l2.628.88 1.183 1.97c.65 1.084 1.192 1.962 1.204 1.951.011-.01-.44-.941-1.002-2.067zm-17.317-.671c.052 0 .061-2.228.061-14.308V8.165h-2l-.544.65c-.526.629-.552.67-.808 1.278-.145.345-.264.653-.264.683s.108.313.24.63l.24.576.955.386.954.387.012.53.013.53-.672.802-.672.802-.948.383c-.7.283-1.134.491-1.662.801-.694.407-.735.44-1.432 1.135-.698.698-.727.733-1.056 1.33l-.339.612-.294 1.411a62 62 0 0 0-.294 1.458c0 .03.076.038.2.024l.202-.022v.898c-.001.736.016.992.096 1.412.053.282.105.49.115.46s-.013-.22-.05-.425c-.038-.209-.081-.811-.099-1.385l-.03-1.016h-.173c-.106 0-.172-.021-.172-.055 0-.03.122-.648.272-1.373l.272-1.318.268-.49c.357-.654.501-.834 1.277-1.59.584-.57.727-.683 1.246-.99.669-.395.817-.465 1.865-.885l.757-.304.684-.81.683-.811-.012-.584-.013-.584-.952-.382-.952-.382-.22-.53c-.12-.292-.22-.577-.22-.633 0-.156.43-1.125.613-1.38.219-.305.757-.96.891-1.084.106-.098.136-.1 1.044-.1h.935l-.011 14.247-.012 14.247-1.339.398-1.34.397-.312-.068a98 98 0 0 1-1.448-.348l-1.136-.28-1.152-1.024c-.923-.82-1.163-1.057-1.201-1.184-.053-.175-.123-1.143-.127-1.766l-.003-.403-.17.016-.17.016.257-1.868c.142-1.027.257-1.938.255-2.024-.003-.143-.482 3.096-.553 3.738l-.03.277.15-.043c.082-.024.163-.043.18-.043s.038.417.047.926c.024 1.268.014 1.243.714 1.867l1.156 1.034.61.547 1.461.349 1.462.349 1.317-.393a32 32 0 0 1 1.378-.393zm5.169.463a41 41 0 0 0 1.484-.368 52 52 0 0 0 1.192-1.048c1.384-1.237 1.279-1.032 1.279-2.484 0-.921.005-.987.078-.966.318.095.335.092.307-.044-.014-.071-.147-.995-.295-2.054l-.269-1.924.001-1.468c.001-1.312.01-1.512.092-1.87.078-.348.09-.55.086-1.491l-.004-1.089.221.03.22.029-.08-.37-.293-1.395-.213-1.027-.405-.737c-.385-.701-.43-.761-.919-1.253-.481-.483-.566-.547-1.34-1.003a11 11 0 0 0-1.785-.874l-.96-.386-.68-.798-.678-.797-.002-.543-.002-.542.949-.379.949-.378.253-.575c.139-.316.254-.605.255-.641 0-.037-.123-.355-.276-.707-.265-.611-.301-.67-.813-1.283l-.536-.642-.993-.001-.993-.001V36.76l1.35.406c.743.224 1.359.41 1.37.412.01.003.662-.148 1.45-.335zM4.488 30.602c1.097-.66 1.988-1.21 1.978-1.22-.01-.009-.95.449-2.088 1.018l-2.07 1.035-.772 2.706a215 215 0 0 0-.792 2.818c-.012.062.377-1.073.863-2.522l.885-2.634zm42.004 3.522-.79-2.767-2.07-1.041c-1.138-.573-2.076-1.034-2.085-1.025-.008.008.873.547 1.958 1.197l1.973 1.183.89 2.655c.489 1.46.895 2.635.902 2.61s-.343-1.29-.778-2.812zM5.166 23.378a760 760 0 0 1-2.687-.9c-.004-.004-.2-1.362-.437-3.02-.524-3.683-.464-3.328-.553-3.238-.066.066-.036.322.367 3.162.24 1.7.453 3.15.47 3.224l.033.133 2.675.768c1.472.422 2.707.767 2.743.767s-1.138-.403-2.611-.896zm37.752.034c1.5-.43 2.734-.786 2.74-.793s.217-1.464.47-3.239c.362-2.538.448-3.238.405-3.28-.04-.041-.062-.042-.086-.004-.017.028-.23 1.449-.474 3.157l-.442 3.106-2.694.897c-2.347.783-2.783.935-2.67.935.012 0 1.25-.35 2.751-.78zm-27.02-5.98c.055-.058.084-.116.064-.127-.092-.052-3.996-1.335-4.013-1.318s3.752 1.544 3.823 1.55c.014.002.07-.046.126-.104zm16.855-.212c.259-.103.47-.201.47-.22s-.079.006-.176.053a1 1 0 0 1-.236.085.2.2 0 0 0-.114.053c-.03.03-.054.037-.054.017s-.025-.017-.055.008a1 1 0 0 1-.225.099c-.132.042-.184.042-.234 0-.036-.03-.054-.071-.04-.093s.003-.04-.023-.04-.048.014-.048.03c0 .055.147.194.206.194.032 0 .27-.084.529-.186zm.65-.26c.036-.025.046-.044.022-.044a.3.3 0 0 0-.112.043c-.037.024-.047.044-.022.044.024 0 .075-.02.111-.044zm1.406-.56c.663-.264 1.223-.497 1.246-.517s-.336.088-.796.24c-.46.153-.801.286-.757.295.075.015-.688.36-.803.364a.34.34 0 0 0-.14.073c-.112.09-.18.115 1.25-.455zm-.58.113c.014-.025.006-.045-.02-.045s-.048.02-.048.045.01.044.02.044.032-.02.047-.044z" style="fill:#7f4a00;fill-opacity:1;stroke:#7f4a00;stroke-width:.04464286;stroke-opacity:1"/>
  <path d="M4.43 44.274v-3.31l1.558-3.134 1.559-3.133 3.34-.951c1.838-.524 3.364-.974 3.391-1.001s.134-.672.237-1.433.199-1.46.213-1.551l.025-.168h-6.7l-2.369 1.418-2.368 1.417-1.032 3.092-1.032 3.091h-1c-.779 0-.995-.012-.98-.056.01-.03.513-1.794 1.118-3.92l1.1-3.863 3.144-1.571 3.144-1.572h7.154l-.023-1.217c-.02-1.096-.071-1.64-.161-1.739-.016-.017-1.302.18-2.858.436-1.555.256-2.893.466-2.972.466-.106 0-4.825-1.325-7.298-2.049-.06-.017-.124-.06-.144-.096-.02-.035-.274-1.736-.565-3.778l-.529-3.714.927-.926c.84-.839.93-.916.952-.817.013.06.255 1.735.538 3.724s.53 3.665.548 3.724c.03.098.29.193 2.812 1.034l2.78.927 2.662-.444c1.464-.245 2.68-.455 2.7-.468.022-.013.039-.088.038-.166 0-.079.133-.796.297-1.594l.298-1.45.26-.473c.144-.26.262-.493.262-.517s-1.08-.472-2.4-.995l-2.4-.951-2.231-2.227-2.233-2.226h-.78V4.638h1.964v6.24l1.903 1.9 1.904 1.901 2.942.98 2.942.982.835-.495c.767-.455 1.313-.714 2.34-1.112.335-.13.352-.144.787-.657.602-.71.684-.838.668-1.03l-.013-.157-.865-.344c-.475-.188-.879-.36-.897-.38-.064-.074-.68-1.602-.682-1.69 0-.049.145-.434.322-.856.304-.72.348-.797.72-1.25.219-.266.397-.503.397-.528 0-.024-.262-.83-.582-1.792l-.583-1.748 1.034-2.07c.569-1.137 1.04-2.075 1.048-2.083s.217.059.465.15c.351.13.447.182.432.238l-.478 1.926-.459 1.853.488 1.45.488 1.451.893.002c.49 0 1.132-.01 1.425-.023l.532-.023.479-1.437.479-1.437-.466-1.862c-.257-1.025-.46-1.892-.453-1.928.01-.053.735-.366.85-.367.018 0 .5.933 1.07 2.075l1.038 2.076-.568 1.708a56 56 0 0 0-.57 1.76c0 .027.184.268.408.534.425.506.522.68.922 1.65l.223.54-.325.782a28 28 0 0 1-.37.866c-.03.054-.352.205-.897.42-.85.333-.852.334-.882.488-.038.2 0 .265.593.978l.485.584.893.359c.68.273 1.083.47 1.692.827.44.258.82.468.848.468.026 0 1.39-.447 3.03-.993l2.98-.993 1.897-1.899 1.897-1.898v-6.27h1.964l-.011 3.739-.012 3.739-.401.012-.402.013-2.21 2.207-2.21 2.207-2.21.89a257 257 0 0 0-2.444.994l-.235.105.294.525.294.524.323 1.552.324 1.55.22.056c.12.03 1.325.24 2.675.467l2.456.41 2.254-.75c1.24-.414 2.5-.841 2.799-.95.487-.178.546-.211.567-.318.013-.066.258-1.757.543-3.758s.533-3.653.55-3.67c.017-.019.44.377.942.88l.912.912-.54 3.754c-.297 2.065-.55 3.765-.564 3.778-.012.013-1.677.497-3.698 1.076l-3.676 1.053-2.656-.44c-1.461-.24-2.786-.44-2.945-.442l-.288-.004-.085.38c-.07.315-.084.556-.083 1.422.002.573.009 1.049.016 1.057a256 256 0 0 0 3.608.046l3.594.032 3.107 1.553 3.108 1.553 1.084 3.81a561 561 0 0 1 1.106 3.909l.02.1h-1.997l-1.025-3.075-1.024-3.076-2.347-1.41-2.348-1.412h-6.716v.11c0 .144.353 2.73.396 2.902.03.116.068.142.321.217.158.046 1.67.482 3.36.967 1.689.486 3.078.89 3.087.9.008.008.72 1.423 1.582 3.142l1.567 3.127v6.626h-1.964v-6.347l-1.425-2.374-1.425-2.373-2.716-.904c-1.494-.497-2.748-.904-2.788-.904-.049 0-.097.09-.156.286l-.084.285-1.289 1.155-1.288 1.154-1.546.369c-.99.236-1.611.364-1.725.354-.098-.008-.615-.143-1.148-.3-.534-.157-.98-.275-.992-.263s-.145.744-.295 1.627-.277 1.608-.28 1.613a7 7 0 0 1-.464-.018l-.456-.025-.045-.228c-.025-.125-.149-.84-.275-1.59-.126-.748-.242-1.373-.258-1.389-.016-.015-.49.11-1.055.278s-1.068.306-1.118.307c-.077.001-2.536-.573-3.068-.716-.124-.033-.398-.248-1.005-.788-1.61-1.428-1.737-1.555-1.819-1.8-.04-.122-.088-.222-.106-.222-.059 0-5.343 1.772-5.473 1.836-.1.048-.436.576-1.526 2.397L6.393 41.25v6.334H4.43zm2.99-6.645c.597-.995 1.117-1.841 1.157-1.881.039-.04 1.112-.419 2.384-.842s2.304-.777 2.294-.788c-.01-.01-1.139.298-2.508.686l-2.488.704-1.004 2.01c-.552 1.104-.985 1.988-.961 1.964.023-.025.53-.859 1.127-1.853zm33.281-.313c-.528-1.055-.97-1.92-.984-1.92-.013 0-1.15-.322-2.527-.716s-2.51-.71-2.517-.703 1.057.376 2.366.817l2.38.804 1.01 1.674 1.098 1.819c.256.42.042-.04-.826-1.775zm-12.03-.092c.748-.175 1.409-.35 1.467-.386.208-.131 2.118-1.863 2.24-2.032.183-.253.22-.516.22-1.532 0-.502.016-.913.035-.913.018 0 .101.02.184.043l.151.044-.025-.256c-.013-.14-.137-1.042-.274-2.004l-.249-1.75.002-1.532c.001-1.238.015-1.587.072-1.822.051-.211.076-.612.092-1.477l.021-1.188.186.034a.6.6 0 0 0 .203.017c.01-.01-.109-.625-.262-1.369l-.28-1.352-.385-.71c-.361-.667-.418-.745-.905-1.25-.47-.487-.583-.577-1.166-.93-.847-.512-1.188-.681-2.163-1.074l-.813-.328-.673-.798-.672-.797.012-.554.012-.554.941-.377.94-.376.254-.604.253-.604-.247-.589c-.294-.701-.32-.741-.93-1.47l-.477-.57h-1.961l.01 14.297.012 14.296 1.362.407c.749.224 1.381.401 1.406.394s.657-.158 1.406-.334zm-7.702.269c.065-.03.046-.034-.071-.016-.1.016-.342-.018-.64-.09a5 5 0 0 0-.531-.11c-.088.008.922.257 1.041.257a.6.6 0 0 0 .201-.041zm.514-.15c.184-.059.314-.109.29-.111a3 3 0 0 0-.38.103c-.184.058-.314.108-.29.11s.196-.043.38-.102zm-1.843-.098c-.015-.015-.053-.017-.085-.004q-.052.023.027.027c.047.002.073-.008.058-.023zm-.955-.234-.811-.208-.95-.848c-1.272-1.136-1.367-1.219-1.29-1.12.037.047.555.522 1.15 1.056l1.084.97.725.178c.398.098.765.178.814.179.049 0-.276-.093-.722-.207zm3.423.15c.086-.034.126-.061.089-.061a1 1 0 0 0-.223.06c-.086.033-.126.06-.09.06a1 1 0 0 0 .224-.06zm.58-.175c.184-.06.315-.11.29-.111a3 3 0 0 0-.38.102c-.183.06-.314.11-.29.111a2.5 2.5 0 0 0 .38-.102zm.625-.183c.086-.033.126-.06.09-.06a1 1 0 0 0-.224.06c-.086.033-.126.06-.09.06a1 1 0 0 0 .224-.06zm23.747-.636-.718-2.519c-.347-1.22-.643-2.236-.658-2.26s-.88-.468-1.924-.987c-1.044-.52-1.863-.917-1.82-.883s.862.532 1.82 1.106l1.74 1.044.788 2.367c.433 1.301.796 2.381.806 2.4.055.097.043 0-.034-.268zM1.886 33.585l.595-1.79 1.843-1.11c1.013-.611 1.835-1.118 1.827-1.126-.009-.009-.877.415-1.929.942l-1.913.958-.665 2.337a226 226 0 0 0-.683 2.427c-.039.196.36-.942.925-2.638Zm21.64-15.23c-.007-3.015-.012-.549-.012 5.48 0 6.027.005 8.493.011 5.48.006-3.015.006-7.947 0-10.96zm-7.985 16.25a3 3 0 0 1-.086-.48l-.038-.358.014.357c.012.322.075.603.134.603.013 0 .001-.055-.024-.123zm-.13-1.998c0-.152-.004-.157-.175-.157-.098 0-.184-.024-.197-.055-.012-.031-.024-.01-.026.048-.003.097.008.102.175.074.176-.03.179-.028.179.108 0 .076.01.138.022.138s.022-.07.022-.156zm-.187-1.429c0-.074-.038.097-.082.38-.045.282-.08.573-.08.647.002.073.039-.097.083-.38.045-.282.08-.573.08-.647zm.04-.368c-.012-.043-.02-.008-.02.078s.008.12.02.078a.4.4 0 0 0 0-.156zm.044-.313c-.011-.043-.02-.008-.02.078s.009.121.02.078a.4.4 0 0 0 0-.156zm.045-.312c-.011-.043-.02-.008-.02.078s.009.12.02.078a.4.4 0 0 0 0-.156zm.043-.29c-.012-.031-.022-.006-.022.055 0 .062.01.087.022.056a.17.17 0 0 0 0-.112zm.065-5.438c-.026-.295-.04-.353-.044-.194-.006.231.039.658.066.63a3 3 0 0 0-.022-.436zm-8.264-.374c0-.01-1.065-.373-2.366-.807a118 118 0 0 1-2.366-.803c0-.007-.201-1.409-.447-3.114a622 622 0 0 1-.446-3.13c0-.016-.02-.029-.045-.029-.106 0-.045.511.582 4.866.126.872.252 1.608.281 1.636.04.04 4.633 1.384 4.774 1.397.018.002.033-.005.033-.016zm35.915-.74c1.373-.393 2.51-.73 2.525-.748.034-.039.836-5.68.876-6.16.018-.21.011-.324-.019-.324-.06 0-.038-.143-.524 3.255-.234 1.631-.436 2.977-.45 2.991s-1.144.401-2.511.86-2.465.835-2.44.837 1.17-.318 2.543-.711zm-27.713.19c-.01-.092-.017-.027-.018.145s.008.248.018.168.01-.22 0-.312zm-.122-.993c.099-.032.092-.037-.06-.04l-.171-.005.031-.234c.018-.13.021-.225.008-.213-.036.035-.11.486-.084.513.031.03.139.023.276-.021zm-.149-.681c-.012-.03-.022-.006-.022.056 0 .061.01.086.022.055a.17.17 0 0 0 0-.111zm.148-.584c.054-.267.09-.493.078-.504-.017-.017-.21.885-.21.984 0 .117.045-.047.132-.48zm.12-.71c-.012-.032-.022-.006-.022.055s.01.086.022.056a.17.17 0 0 0 0-.112zm.045-.224c-.013-.03-.023-.006-.023.056 0 .061.01.086.023.056a.17.17 0 0 0 0-.112zm.483-1.217c.286-.504.35-.582 1.09-1.321.7-.7.841-.819 1.29-1.087.591-.353 1.169-.628 2.063-.983l.647-.257.558-.666c.756-.902.816-.976.787-.976-.014 0-.325.359-.692.797l-.667.797-.797.325c-.958.39-1.344.58-2.036.998-.474.285-.6.392-1.25 1.055-.692.705-.74.764-1.043 1.318-.181.331-.34.682-.368.817-.077.362-.05.384.037.032.05-.202.186-.504.381-.849zm-.02-1.698c.034-.04.04-.084.017-.106-.05-.045-3.556-1.214-3.577-1.192-.027.027 3.31 1.364 3.408 1.365a.22.22 0 0 0 .152-.067zm18.504-.905c-.014-.013-.05 0-.08.03-.044.045-.039.05.025.026.044-.017.069-.042.055-.056zm.713-.255c.708-.281.75-.332.09-.11-.292.098-.542.195-.556.215a.5.5 0 0 1-.114.093c-.122.076-.04.048.58-.198zm-12.794-3.563c-.01-.008-.436-.181-.946-.385-.759-.302-.94-.39-.992-.487-.074-.137-.089-.102-.02.048.037.08.258.188.994.484.81.327 1.053.412.964.34zm1.194-.264c-.012-.03-.022-.005-.022.056s.01.086.022.056a.17.17 0 0 0 0-.112zm-3.375-1.216-.174-.441.092-.248a5.1 5.1 0 0 1 .914-1.61c.548-.682.572-.704.795-.726l.178-.018-.202-.008-.202-.007-.47.569c-.63.764-.64.777-.917 1.45l-.243.587.186.462c.102.254.193.455.201.447s-.063-.214-.158-.457z" style="fill:#653c05;fill-opacity:1;stroke:#653c05;stroke-width:.04464286;stroke-opacity:1"/>
  <path d="m44.054 22.91 1.522-.52.053-.382c.202-1.466.757-5.136.76-5.026.004.135-.737 5.384-.78 5.52a.16.16 0 0 1-.099.094l-1.465.43c-.764.223-1.417.405-1.451.404s.623-.236 1.46-.52zm1.96 10.18-.491-1.464-1.194-.715c-.657-.393-1.175-.722-1.15-.73s.592.266 1.26.609l1.216.624.435 1.511c.24.832.431 1.538.426 1.57s-.232-.6-.502-1.405zm-5.766 3.799-.797-1.327-1.33-.446c-.73-.245-1.319-.455-1.306-.468.027-.027 2.793.745 2.865.8.068.053 1.415 2.717 1.387 2.745-.012.012-.38-.575-.819-1.304zm-33.132 1.05c.009-.026.287-.576.618-1.222l.601-1.175 1.211-.34c.666-.188 1.238-.34 1.272-.339s-.457.182-1.092.4c-.69.238-1.178.43-1.213.477a66 66 0 0 0-.716 1.162c-.594.977-.73 1.184-.681 1.037zM1.664 33.99c-.003-.024.15-.592.34-1.262l.346-1.218 1.2-.605c.66-.332 1.208-.596 1.218-.586s-.51.339-1.157.73l-1.176.71-.383 1.138c-.211.626-.386 1.118-.388 1.093z" style="fill:#7f4a00;fill-opacity:1;stroke:#7f4a00;stroke-width:.04464286;stroke-opacity:1"/>
  <path d="M26.6 1015.298c-1.128-.594-1.284-2.267-.291-3.119.57-.489 1.319-.489 1.882 0 .404.35.588.71.645 1.257.144 1.386-1.128 2.445-2.236 1.862zm-6.312.134c-1.128-.594-1.284-2.267-.292-3.119.57-.49 1.32-.489 1.883 0 .403.35.587.71.644 1.257.145 1.386-1.128 2.445-2.235 1.862z" style="fill:#2c1900;fill-opacity:1;stroke:#000;stroke-width:.00817962;stroke-miterlimit:4;stroke-dasharray:none;stroke-opacity:0" transform="translate(0 -1004.362)"/>
</svg>
